# Blender 5.1.1
# www.blender.org
o waterholder.004
v -0.198956 0.263110 0.710529
v -0.198940 0.526873 0.788009
v -0.166924 0.525330 0.745354
v -0.177967 0.263110 -0.715223
v -0.178070 0.527276 -0.792417
v -0.144924 0.525330 -0.749088
v 0.176847 0.263110 0.716065
v 0.177254 0.527301 0.793038
v 0.143805 0.525330 0.749928
v 0.197836 0.263110 -0.709692
v 0.197533 0.527119 -0.786531
v 0.165804 0.525330 -0.744514
v -0.242591 0.474534 0.854073
v -0.242306 0.475333 0.865696
v -0.216732 0.475333 -0.871597
v 0.215612 0.475333 0.872437
v -0.166924 0.343328 0.745354
v -0.144924 0.343328 -0.749088
v 0.165804 0.343328 -0.744514
v 0.143805 0.343328 0.749928
v -0.198956 0.263110 0.710529
v -0.209089 0.277377 0.677418
v -0.198956 0.263110 0.710529
v -0.128270 0.504537 0.769463
v -0.178581 0.515524 0.713385
v -0.177967 0.263110 -0.715223
v -0.189072 0.277377 -0.682424
v -0.177967 0.263110 -0.715223
v -0.159193 0.514600 -0.713515
v -0.102256 0.503487 -0.774948
v 0.176847 0.263110 0.716065
v 0.187952 0.277377 0.683266
v 0.176847 0.263110 0.716065
v 0.156296 0.515469 0.718284
v 0.119396 0.516702 0.764349
v 0.197836 0.263110 -0.709692
v 0.172400 0.277377 -0.723719
v 0.207970 0.277377 -0.676580
v 0.197836 0.263110 -0.709692
v 0.122132 0.493179 -0.768534
v 0.151445 0.525330 -0.752434
v 0.176171 0.517690 -0.715100
v -0.211311 0.457948 0.882790
v -0.189397 0.463633 -0.887416
v -0.223028 0.471653 -0.851775
v 0.253536 0.457948 -0.824509
v 0.236849 0.472708 -0.864827
v 0.183579 0.460752 0.892062
v 0.221908 0.471652 0.852615
v -0.166924 0.343328 0.745354
v -0.178696 0.411990 0.706890
v -0.166924 0.343328 0.745354
v -0.144924 0.343328 -0.749088
v -0.144924 0.343328 -0.749088
v 0.165804 0.343328 -0.744514
v 0.181290 0.369995 -0.686455
v 0.165804 0.343328 -0.744514
v 0.143805 0.343328 0.749928
v 0.113791 0.373128 0.765347
v 0.160416 0.369995 0.731426
v 0.143805 0.343328 0.749928
v 0.022760 1.289440 1.267395
v 0.060230 1.328857 -1.277830
v 0.060230 1.250023 -1.277830
v -0.056065 1.328857 1.266231
v -0.018597 1.289440 -1.278990
v -0.056065 1.250023 1.266231
v 0.026633 0.003971 -0.778419
v -0.025917 1.252252 -0.779194
v -0.024426 0.003971 -0.880516
v -0.024426 1.252252 -0.880516
v 0.052908 1.252252 -0.778032
v 0.054399 0.003971 -0.879354
v 0.054399 1.252252 -0.879355
v 0.030054 1.252252 0.774464
v 0.030054 0.003971 0.774464
v 0.028563 1.252252 0.875790
v 0.028563 0.003971 0.875790
v -0.048773 1.252252 0.773304
v -0.048773 0.003971 0.773304
v -0.050264 1.252252 0.874626
v -0.050264 0.003971 0.874626
vn 0.2954 0.8454 0.4451
vn 0.3133 0.2914 -0.9039
vn 0.5077 0.8141 -0.2819
vn 0.4787 0.8151 0.3262
vn 0.6067 -0.4764 0.6364
vn 0.0551 -0.0493 0.9973
vn 0.5073 0.7683 0.3904
vn 0.1083 -0.0000 0.9941
vn 0.0003 -0.0000 1.0000
vn 0.4479 0.8288 -0.3353
vn 0.8273 0.3518 0.4379
vn 0.1227 -0.0000 0.9924
vn 0.4471 0.8208 0.3554
vn 0.1058 -0.6542 0.7489
vn 0.0813 -0.6011 -0.7950
vn -0.5841 -0.4685 -0.6628
vn -0.5144 0.7541 -0.4082
vn -0.9621 -0.1940 -0.1914
vn 0.9635 -0.1905 0.1883
vn 0.0074 0.6600 -0.7512
vn -0.0492 -0.0464 0.9977
vn -0.0000 -0.0000 1.0000
vn 0.0853 -0.0000 0.9964
vn -0.8021 -0.5971 -0.0118
vn -0.4468 0.6916 -0.5676
vn -0.6618 0.2486 0.7072
vn -0.7698 0.5073 0.3874
vn -0.0339 -0.6259 0.7792
vn -0.0516 -0.6627 0.7471
vn -0.0110 -0.6648 0.7470
vn 0.9806 -0.1951 0.0175
vn 0.9748 0.1647 -0.1502
vn 0.9707 0.0555 -0.2339
vn 0.0198 -0.9998 0.0003
vn 0.7051 -0.7090 0.0104
vn 0.9999 -0.0000 0.0147
vn 0.7545 -0.6472 0.1091
vn 0.8880 -0.4293 0.1647
vn -0.0000 -1.0000 -0.0000
vn -0.9484 -0.2870 0.1345
vn -0.6171 -0.5765 0.5355
vn -0.8182 -0.4538 0.3530
vn -0.5817 0.7158 -0.3863
vn -0.4619 0.8299 -0.3131
vn -0.6978 0.6397 0.3221
vn -0.4755 0.8257 0.3036
vn 0.1508 0.9855 0.0775
vn 0.6270 0.3719 -0.6845
vn 0.9505 0.0067 -0.3106
vn 0.8725 0.3119 -0.3760
vn 0.0010 0.8148 0.5797
vn 0.1412 0.9879 -0.0637
vn 0.9089 -0.3474 0.2307
vn -0.3818 0.8109 -0.4435
vn -0.4791 0.0056 -0.8777
vn -0.5417 0.4420 -0.7150
vn -0.9089 -0.3474 -0.2307
vn 0.7766 0.6300 0.0104
vn 0.9999 -0.0020 0.0136
vn 0.5399 0.8417 0.0071
vn -0.8599 -0.0313 -0.5095
vn -0.7611 0.3070 -0.5713
vn -0.4820 0.0001 0.8762
vn -0.9854 -0.1696 -0.0126
vn -0.0000 1.0000 -0.0000
vn 0.0997 0.9881 0.1173
vn -0.0166 0.9994 0.0300
vn -0.2256 0.9522 0.2059
vn 0.8485 -0.4269 -0.3128
vn 0.9779 -0.2085 0.0176
vn -0.0353 0.9992 -0.0182
vn -0.9993 -0.0335 -0.0143
vn -0.0200 0.5832 -0.8120
vn -0.0203 -0.0061 -0.9998
vn -0.0184 0.7251 -0.6884
vn 0.6122 0.3661 0.7008
vn -0.8900 0.3088 0.3354
vn -0.9595 0.0096 0.2815
vn -0.0671 -0.6617 0.7468
vn -0.0666 0.1527 0.9860
vn 0.0083 -0.6542 -0.7562
vn 0.8021 -0.5971 0.0118
vn 0.5216 0.8531 0.0068
vn -0.0182 0.8571 0.5148
vn 0.9940 0.1081 0.0180
vn -0.0166 0.8181 -0.5749
vn 0.0484 0.2003 -0.9785
vn -0.0120 0.3896 0.9209
vn -0.0123 0.3770 0.9261
vn -0.0083 0.5234 0.8520
vn -0.0172 0.1588 0.9872
vn -0.4486 0.8937 -0.0054
vn -0.8526 0.5224 -0.0126
vn -0.7051 -0.7091 -0.0104
vn -0.0198 -0.9998 -0.0003
vn -0.0085 0.8162 0.5777
vn -0.0148 -0.0000 0.9999
vn -0.0075 0.8601 0.5100
vn 0.0085 0.8162 -0.5777
vn 0.0147 -0.0000 -0.9999
vn 0.0075 0.8602 -0.5100
vn -0.9714 -0.0204 0.2367
vn -0.9999 -0.0000 -0.0147
vn 0.9896 -0.0104 0.1432
vn 0.6534 -0.0070 0.7570
vn -0.0147 -0.0000 0.9999
vt 0.825881 0.647900
vt 0.825878 0.001665
vt 0.833170 0.020492
vt 0.833171 0.630497
vt 0.688785 0.624249
vt 0.660182 0.629819
vt 0.691010 0.609515
vt 0.373754 0.669469
vt 0.400379 0.669469
vt 0.658384 0.394247
vt 0.633556 0.383067
vt 0.660182 0.383066
vt 0.690114 0.601760
vt 0.660182 0.589211
vt 0.662251 0.576532
vt 0.536038 0.452618
vt 0.530168 0.449488
vt 0.530251 0.442293
vt 0.626621 0.003485
vt 0.630715 0.004172
vt 0.630611 0.011437
vt 0.689266 0.395805
vt 0.660182 0.403370
vt 0.691020 0.383066
vt 0.373702 0.828185
vt 0.347078 0.828185
vt 0.732873 0.608430
vt 0.732873 0.059913
vt 0.734964 0.072595
vt 0.734964 0.595755
vt 0.621995 0.429182
vt 0.608016 0.422250
vt 0.611378 0.420074
vt 0.660182 0.815660
vt 0.633557 0.439282
vt 0.627975 0.448141
vt 0.625000 0.875000
vt 0.375000 1.000000
vt 0.375000 0.750000
vt 0.625000 0.250000
vt 0.541667 0.500000
vt 0.375000 0.250000
vt 0.763934 0.000000
vt 0.763500 0.008875
vt 0.538507 0.429505
vt 0.825867 0.002395
vt 0.825867 0.647928
vt 0.818561 0.630047
vt 0.818561 0.020140
vt 0.538906 0.023817
vt 0.551940 0.031612
vt 0.546328 0.035038
vt 0.660182 0.958006
vt 0.633556 0.958007
vt 0.643591 0.943258
vt 0.658582 0.945863
vt 0.531458 0.008972
vt 0.622250 0.023477
vt 0.544292 0.410771
vt 0.546328 0.418101
vt 0.701785 0.608373
vt 0.703881 0.595713
vt 0.732459 0.659578
vt 0.732868 0.668368
vt 0.400379 0.823129
vt 0.373754 0.823129
vt 0.378135 0.808402
vt 0.398924 0.811376
vt 0.763533 0.659604
vt 0.763934 0.668372
vt 0.397118 0.682264
vt 0.767832 0.007205
vt 0.763937 0.000000
vt 0.790563 0.000000
vt 0.788965 0.012132
vt 0.347078 0.674524
vt 0.373702 0.674524
vt 0.373713 0.681681
vt 0.369021 0.689251
vt 0.701785 0.000000
vt 0.701785 0.383063
vt 0.633556 0.383066
vt 0.633556 0.000002
vt 0.614556 0.418099
vt 0.701785 0.059859
vt 0.732870 0.003506
vt 0.730336 0.015471
vt 0.703881 0.072555
vt 0.616788 0.043178
vt 0.614556 0.035035
vt 0.767832 0.552693
vt 0.789293 0.563828
vt 0.609336 0.031845
vt 0.544097 0.043174
vt 0.370272 0.815352
vt 0.551945 0.421655
vt 0.616599 0.410741
vt 0.790563 0.574943
vt 0.763937 0.574943
vt 0.691010 0.835964
vt 0.688443 0.820515
vt 0.690998 0.828456
vt 0.691018 0.824075
vt 0.373754 0.833241
vt 0.625000 0.750000
vt 0.375000 0.500000
vt 0.625000 0.500000
vt 0.609843 0.819128
vt 0.527327 0.819129
vt 0.527327 0.453843
vt 0.609843 0.453842
vt 0.625000 0.000000
vt 0.375000 0.125000
vt 0.375000 0.375000
vt 0.125000 0.750000
vt 0.125000 0.500000
vt 0.875000 0.500000
vt 0.875000 0.750000
vt 0.625000 0.625000
vt 0.625000 1.000000
vt 0.375000 0.000000
vt 0.375000 0.583333
s 1
f 49/1/1 47/2/2 11/3/3 8/4/4
f 48/5/5 33/6/6 16/7/7
f 52/8/8 17/8/9 3/9/10
f 29/10/11 54/11/12 6/12/13
f 47/13/2 10/14/14 37/15/15
f 44/16/16 15/17/17 45/18/18
f 48/19/5 16/20/7 49/21/19
f 44/22/20 47/13/2 37/15/15
f 44/22/16 28/23/21 15/24/17
f 6/25/13 18/26/22 53/26/23
f 26/27/24 23/28/24 22/29/24 27/30/24
f 11/31/25 40/32/26 41/33/27
f 48/5/28 21/34/29 33/6/30
f 49/21/31 46/35/32 47/36/33
f 62/37/34 64/38/35 63/39/36
f 73/40/37 68/41/38 70/42/39
f 23/28/40 1/28/40 14/43/41 13/44/42 22/29/40
f 47/36/2 44/16/20 45/18/43 5/45/44 11/31/3
f 45/46/43 13/47/45 2/48/46 5/49/44
f 2/50/47 24/51/48 3/52/10
f 3/53/10 17/54/49 50/54/49 51/55/49 25/56/50
f 13/57/45 48/19/51 49/21/1 8/58/4 2/50/46
f 33/6/6 7/6/22 16/7/7
f 5/45/52 29/59/11 6/60/13
f 7/61/53 31/61/53 32/62/53 49/63/19 16/64/7
f 9/65/54 20/66/55 58/66/55 59/67/55 35/68/56
f 4/27/57 26/27/57 27/30/57 45/69/18 15/70/17
f 24/71/48 52/8/8 3/9/10
f 25/56/58 51/55/59 29/10/60
f 54/11/12 18/11/22 6/12/13
f 60/72/61 61/73/61 20/73/61 9/74/54 34/75/62
f 10/14/14 36/14/22 37/15/15
f 57/76/63 19/76/63 12/77/63 41/78/27 40/79/26
f 45/69/43 27/30/64 22/29/64 13/44/45
f 54/80/65 50/81/65 17/81/65 52/81/65 58/82/65 20/82/65 61/82/65 55/83/65 19/83/65 57/83/65 53/80/65 18/80/65
f 28/23/21 4/23/22 15/24/17
f 11/31/66 41/33/67 12/84/68
f 39/85/69 10/85/69 47/86/33 46/87/32 38/88/69
f 49/63/31 32/62/70 38/88/70 46/87/32
f 8/58/71 34/89/62 9/90/54
f 56/91/72 60/72/72 34/75/72 42/92/72
f 9/90/54 35/93/56 8/58/71
f 3/52/10 25/94/50 2/50/47
f 35/68/73 59/67/74 24/71/75
f 53/26/23 30/95/76 6/25/13
f 6/60/13 30/96/76 5/45/52
f 12/84/68 42/97/77 11/31/66
f 42/92/77 12/98/68 19/99/78 55/99/78 56/91/78
f 14/100/41 1/34/79 21/34/29 48/5/28 43/101/80 13/102/42
f 28/23/81 44/22/81 37/15/81 36/14/81
f 31/61/82 39/85/82 38/88/82 32/62/82
f 25/94/58 29/59/60 5/45/83 2/50/83
f 48/5/28 13/103/84 43/101/80
f 51/55/85 50/54/85 54/11/85 29/10/85
f 24/51/75 2/50/86 8/58/86 35/93/73
f 59/67/87 58/66/87 52/8/87 24/71/87
f 30/95/88 40/79/89 11/8/90 5/104/90
f 30/95/88 53/26/91 57/76/91 40/79/89
f 34/89/92 8/58/92 11/31/92 42/97/92
f 56/91/93 55/99/93 61/73/93 60/72/93
f 67/105/94 66/39/95 64/106/35 62/107/34
f 28/108/39 36/109/39 10/109/39 39/109/39 31/110/39 7/110/39 33/110/39 21/111/39 1/111/39 23/111/39 26/108/39 4/108/39
f 65/112/96 67/40/97 62/113/98
f 63/40/99 64/107/100 66/114/101
f 63/115/99 66/116/101 65/106/96 62/39/98
f 70/105/102 68/107/102 69/117/102 71/118/102
f 67/117/94 65/118/103 66/119/95
f 73/115/100 70/116/100 71/106/100 74/39/100
f 68/38/38 73/39/37 74/105/104 72/120/105
f 69/40/65 72/42/65 74/121/65 71/112/65
f 72/107/105 69/105/106 68/122/38
f 81/40/65 77/42/65 75/121/65 79/112/65
f 82/106/39 80/42/39 76/40/39 78/107/39
f 82/39/97 78/106/97 77/107/97 81/105/97
f 78/38/36 76/39/36 75/105/36 77/120/36
f 76/115/100 80/116/100 79/106/100 75/39/100
f 80/105/103 82/107/103 81/117/103 79/118/103
