# Blender 5.1.1
# www.blender.org
mtllib WDrinker_LOD0.mtl
o waterholder.004
v -0.198956 0.263110 0.710529
v -0.209839 0.525330 0.798870
v -0.166924 0.525330 0.745354
v -0.177967 0.263110 -0.715223
v -0.186245 0.525330 -0.803846
v -0.144924 0.525330 -0.749088
v 0.176847 0.263110 0.716065
v 0.185125 0.525330 0.804684
v 0.143805 0.525330 0.749928
v 0.197836 0.263110 -0.709692
v 0.208717 0.525330 -0.798031
v 0.165804 0.525330 -0.744514
v -0.223660 0.475333 0.842442
v -0.242306 0.475333 0.865696
v -0.198778 0.475333 -0.847805
v -0.216732 0.475333 -0.871597
v 0.222540 0.475333 -0.841602
v 0.241186 0.475333 -0.864857
v 0.197659 0.475333 0.848644
v 0.215612 0.475333 0.872437
v -0.166924 0.343328 0.745354
v -0.144924 0.343328 -0.749088
v 0.165804 0.343328 -0.744514
v 0.143805 0.343328 0.749928
v -0.198956 0.263110 0.710529
v -0.173519 0.277377 0.724560
v -0.209089 0.277377 0.677418
v -0.198956 0.263110 0.710529
v -0.177694 0.525330 0.782360
v -0.137377 0.508758 0.761650
v -0.152565 0.525330 0.753273
v -0.178696 0.508758 0.706890
v -0.196024 0.525330 0.758068
v -0.172646 0.525330 0.726662
v -0.177967 0.263110 -0.715223
v -0.189072 0.277377 -0.682424
v -0.152128 0.277377 -0.728496
v -0.177967 0.263110 -0.715223
v -0.173637 0.525330 -0.762655
v -0.157824 0.508758 -0.710991
v -0.151194 0.525330 -0.730576
v -0.114910 0.508758 -0.764507
v -0.154600 0.525330 -0.786396
v -0.130339 0.525330 -0.756582
v 0.176847 0.263110 0.716065
v 0.187952 0.277377 0.683266
v 0.151009 0.277377 0.729336
v 0.176847 0.263110 0.716065
v 0.172518 0.525330 0.763496
v 0.156704 0.508758 0.711830
v 0.150074 0.525330 0.731415
v 0.113791 0.508758 0.765347
v 0.153481 0.525330 0.787235
v 0.129219 0.525330 0.757420
v 0.197836 0.263110 -0.709692
v 0.172400 0.277377 -0.723719
v 0.207970 0.277377 -0.676580
v 0.197836 0.263110 -0.709692
v 0.176575 0.525330 -0.781521
v 0.136257 0.508758 -0.760809
v 0.151445 0.525330 -0.752434
v 0.177576 0.508758 -0.706053
v 0.194904 0.525330 -0.757231
v 0.171524 0.525330 -0.725824
v -0.237410 0.475333 0.834858
v -0.254656 0.457948 0.825348
v -0.248308 0.475333 0.846088
v -0.211311 0.457948 0.882790
v -0.218182 0.475333 0.860340
v -0.227245 0.475333 0.874001
v -0.192776 0.475333 -0.865534
v -0.185247 0.457948 -0.887770
v -0.201431 0.475333 -0.879456
v -0.230263 0.457948 -0.831631
v -0.212746 0.475333 -0.840630
v -0.223307 0.475333 -0.852175
v 0.236290 0.475333 -0.834021
v 0.253536 0.457948 -0.824509
v 0.247189 0.475333 -0.845249
v 0.210192 0.457948 -0.881948
v 0.217062 0.475333 -0.859501
v 0.226124 0.475333 -0.873161
v 0.191656 0.475333 0.866371
v 0.184128 0.457948 0.888611
v 0.200312 0.475333 0.880295
v 0.229143 0.457948 0.832470
v 0.211624 0.475333 0.841469
v 0.222187 0.475333 0.853016
v -0.166924 0.343328 0.745354
v -0.178696 0.411990 0.706890
v -0.137377 0.373128 0.761650
v -0.166924 0.343328 0.745354
v -0.144924 0.343328 -0.749088
v -0.114910 0.381889 -0.764507
v -0.157824 0.411990 -0.710991
v -0.144924 0.343328 -0.749088
v 0.165804 0.343328 -0.744514
v 0.181290 0.369995 -0.686455
v 0.136257 0.381889 -0.760809
v 0.165804 0.343328 -0.744514
v 0.143805 0.343328 0.749928
v 0.113791 0.373128 0.765347
v 0.160416 0.369995 0.731426
v 0.143805 0.343328 0.749928
v 0.022760 1.328857 1.267395
v 0.060230 1.328857 -1.277830
v 0.022760 1.250023 1.267395
v 0.060230 1.250023 -1.277830
v -0.056065 1.328857 1.266231
v -0.018597 1.328857 -1.278990
v -0.056065 1.250023 1.266231
v -0.018597 1.250023 -1.278990
v -0.025917 0.003971 -0.779194
v -0.025917 1.252252 -0.779194
v -0.024426 0.003971 -0.880516
v -0.024426 1.252252 -0.880516
v 0.052908 0.003971 -0.778032
v 0.052908 1.252252 -0.778032
v 0.054399 0.003971 -0.879354
v 0.054399 1.252252 -0.879355
v 0.030054 1.252252 0.774464
v 0.030054 0.003971 0.774464
v 0.028563 1.252252 0.875790
v 0.028563 0.003971 0.875790
v -0.048773 1.252252 0.773304
v -0.048773 0.003971 0.773304
v -0.050264 1.252252 0.874626
v -0.050264 0.003971 0.874626
vn -0.8690 -0.4057 0.2832
vn 0.0080 0.8388 -0.5444
vn 0.7817 0.6235 0.0115
vn -0.7817 0.6235 -0.0115
vn -0.0000 1.0000 -0.0000
vn 0.9562 -0.0000 -0.2927
vn -0.0080 0.8388 0.5444
vn 0.3877 -0.6111 0.6901
vn 0.8603 -0.4057 0.3087
vn -0.4570 -0.0000 -0.8895
vn -0.8603 -0.4057 -0.3087
vn 0.4827 -0.0000 -0.8758
vn 0.4830 -0.0000 -0.8756
vn 0.9999 -0.0000 0.0147
vn 0.9472 -0.0000 0.3207
vn -0.0147 -0.0000 0.9999
vn -0.8855 -0.0376 -0.4631
vn 0.4079 -0.6111 -0.6784
vn -0.4829 -0.0000 0.8757
vn -0.0111 -0.6603 0.7509
vn -0.9722 -0.2336 -0.0143
vn 0.0111 -0.6603 -0.7509
vn -0.3877 -0.6111 -0.6901
vn 0.8690 -0.4057 -0.2832
vn 0.9722 -0.2336 0.0143
vn -0.9995 -0.0288 -0.0147
vn 0.0147 -0.0000 -0.9999
vn 0.4570 -0.0000 0.8895
vn -0.9624 0.0053 0.2717
vn -0.4079 -0.6111 0.6784
vn 0.5287 0.7154 0.4568
vn -0.5657 0.7090 -0.4211
vn -0.5779 0.7090 0.4043
vn 0.5419 0.7154 -0.4410
vn 0.5779 0.7090 -0.4043
vn -0.5419 0.7155 0.4410
vn -0.5287 0.7154 -0.4568
vn 0.5657 0.7090 0.4211
vn -0.4844 0.7378 -0.4701
vn 0.5766 0.7219 0.3826
vn 0.5877 0.7219 -0.3654
vn -0.4978 0.7379 0.4557
vn 0.4844 0.7378 0.4702
vn -0.5767 0.7219 -0.3826
vn -0.5877 0.7219 0.3654
vn 0.4981 0.7378 -0.4556
vn -0.8021 -0.5971 -0.0118
vn 0.0106 -0.6913 -0.7224
vn 0.8021 -0.5971 0.0118
vn -0.0106 -0.6914 0.7224
vn -0.7071 0.7071 -0.0104
vn -0.0090 0.7893 0.6140
vn 0.7070 0.7071 0.0104
vn 0.9841 0.1768 0.0145
vn 0.0090 0.7893 -0.6140
vn 0.0130 0.4698 -0.8827
vn 0.0090 0.7892 -0.6140
vn -0.0136 0.3803 0.9247
vn -0.7070 0.7071 -0.0104
vn -0.8526 0.5224 -0.0126
vn -0.0000 -1.0000 -0.0000
vn -0.0148 -0.0000 0.9999
vn -0.9999 -0.0000 -0.0147
vt 0.732873 0.059913
vt 0.763934 0.000000
vt 0.763937 0.007510
vt 0.761396 0.015454
vt 0.734964 0.072595
vt 0.537080 0.431978
vt 0.544083 0.427625
vt 0.616800 0.427623
vt 0.623803 0.431975
vt 0.626697 0.443455
vt 0.625437 0.448020
vt 0.535447 0.448024
vt 0.534186 0.443458
vt 0.833173 0.016815
vt 0.833162 0.032564
vt 0.833162 0.617616
vt 0.833173 0.633410
vt 0.825871 0.650270
vt 0.825883 0.647454
vt 0.825883 0.002862
vt 0.825870 0.000000
vt 0.818560 0.633440
vt 0.818565 0.617673
vt 0.818565 0.032619
vt 0.818560 0.016842
vt 0.825866 0.002833
vt 0.825866 0.647429
vt 0.825870 0.650273
vt 0.544083 0.025514
vt 0.549505 0.033063
vt 0.546328 0.035038
vt 0.537080 0.021162
vt 0.633556 0.958007
vt 0.643591 0.943258
vt 0.657747 0.943258
vt 0.660177 0.950839
vt 0.660182 0.958006
vt 0.623803 0.021158
vt 0.616800 0.025512
vt 0.534186 0.010205
vt 0.535447 0.005639
vt 0.625437 0.005636
vt 0.626697 0.010202
vt 0.690998 0.617022
vt 0.688443 0.624964
vt 0.662250 0.642497
vt 0.660182 0.629819
vt 0.691010 0.609515
vt 0.539980 0.421470
vt 0.545011 0.413333
vt 0.546328 0.418101
vt 0.732868 0.668368
vt 0.701785 0.608373
vt 0.703881 0.595713
vt 0.730336 0.652942
vt 0.732873 0.660872
vt 0.400379 0.823129
vt 0.373754 0.823129
vt 0.378135 0.808402
vt 0.397976 0.808402
vt 0.400389 0.815973
vt 0.763934 0.668372
vt 0.732873 0.608430
vt 0.734964 0.595755
vt 0.761396 0.652928
vt 0.763937 0.660867
vt 0.373754 0.669469
vt 0.400379 0.669469
vt 0.400389 0.676625
vt 0.397976 0.684196
vt 0.378135 0.684196
vt 0.657747 0.397772
vt 0.643591 0.397773
vt 0.660177 0.390213
vt 0.633556 0.383067
vt 0.660182 0.383066
vt 0.371300 0.689251
vt 0.371300 0.813458
vt 0.352741 0.813458
vt 0.352741 0.689251
vt 0.790561 0.007154
vt 0.788134 0.014723
vt 0.767832 0.007205
vt 0.763937 0.000000
vt 0.790563 0.000000
vt 0.691020 0.609515
vt 0.660182 0.589211
vt 0.662251 0.576532
vt 0.688455 0.594066
vt 0.691009 0.602007
vt 0.347078 0.674524
vt 0.373702 0.674524
vt 0.373713 0.681681
vt 0.531143 0.012097
vt 0.528787 0.009178
vt 0.530168 0.004176
vt 0.533501 0.002104
vt 0.533501 0.451559
vt 0.530168 0.449488
vt 0.528787 0.444486
vt 0.531143 0.441567
vt 0.629740 0.441563
vt 0.632096 0.444482
vt 0.630715 0.449484
vt 0.627382 0.451556
vt 0.627382 0.002101
vt 0.630715 0.004172
vt 0.632096 0.009174
vt 0.629740 0.012093
vt 0.633556 0.000002
vt 0.701785 0.000000
vt 0.701785 0.383063
vt 0.633556 0.383066
vt 0.688443 0.820515
vt 0.662250 0.802981
vt 0.662251 0.416048
vt 0.688455 0.398515
vt 0.691009 0.390573
vt 0.660182 0.403370
vt 0.691020 0.383066
vt 0.611378 0.420074
vt 0.614556 0.418099
vt 0.732873 0.007518
vt 0.730336 0.015471
vt 0.703881 0.072555
vt 0.701785 0.059859
vt 0.732868 0.000000
vt 0.620903 0.031667
vt 0.615872 0.039804
vt 0.614556 0.035035
vt 0.788134 0.560211
vt 0.767832 0.552693
vt 0.611378 0.033061
vt 0.545011 0.039806
vt 0.539980 0.031670
vt 0.373702 0.828185
vt 0.347078 0.828185
vt 0.373713 0.821028
vt 0.549505 0.420076
vt 0.615872 0.413330
vt 0.620903 0.421467
vt 0.763937 0.574943
vt 0.790561 0.567784
vt 0.790563 0.574943
vt 0.660182 0.815660
vt 0.690998 0.828456
vt 0.691010 0.835964
vt 0.552867 0.031060
vt 0.543619 0.044937
vt 0.543619 0.408376
vt 0.552867 0.422252
vt 0.617264 0.044934
vt 0.608016 0.031058
vt 0.608016 0.422250
vt 0.617264 0.408373
vt 0.527327 0.014560
vt 0.537027 0.000003
vt 0.537027 0.453842
vt 0.527327 0.439286
vt 0.633557 0.439282
vt 0.623856 0.453839
vt 0.623856 0.000000
vt 0.633557 0.014556
vt 0.691018 0.621403
vt 0.691018 0.824075
vt 0.373754 0.833241
vt 0.609843 0.819128
vt 0.527327 0.819129
vt 0.527327 0.453843
vt 0.609843 0.453842
vt 0.375000 0.000000
vt 0.625000 0.000000
vt 0.625000 0.250000
vt 0.375000 0.250000
vt 0.625000 0.500000
vt 0.375000 0.500000
vt 0.625000 0.750000
vt 0.375000 0.750000
vt 0.625000 1.000000
vt 0.375000 1.000000
vt 0.125000 0.500000
vt 0.125000 0.750000
vt 0.875000 0.500000
vt 0.875000 0.750000
s 1
f 1/1/1 14/2/1 67/3/1 66/4/1 27/5/1 28/1/1
f 5/6/2 43/7/2 59/8/2 11/9/2 17/10/2 81/11/2 71/12/2 15/13/2
f 11/14/3 63/15/3 49/16/3 8/17/3 19/18/3 87/19/3 77/20/3 17/21/3
f 2/22/4 33/23/4 39/24/4 5/25/4 15/21/4 75/26/4 65/27/4 13/28/4
f 29/29/5 31/30/5 3/31/5 2/32/5
f 89/33/6 90/34/6 32/35/6 34/36/6 3/37/6 21/33/6
f 8/38/7 53/39/7 29/29/7 2/32/7 13/40/7 69/41/7 83/42/7 19/43/7
f 85/44/8 84/45/8 47/46/8 48/47/8 7/47/8 20/48/8
f 39/49/5 41/50/5 6/51/5 5/6/5
f 20/52/9 7/53/9 45/53/9 46/54/9 86/55/9 88/56/9
f 9/57/10 24/58/10 101/58/10 102/59/10 52/60/10 54/61/10
f 16/62/11 4/63/11 35/63/11 36/64/11 74/65/11 76/66/11
f 21/67/12 3/68/12 31/69/12 30/70/12 91/71/12 92/67/13
f 40/72/14 32/35/14 90/34/14 95/73/14
f 41/74/15 40/72/15 95/73/15 96/75/15 22/75/15 6/76/15
f 60/77/16 42/78/16 94/79/16 99/80/16
f 51/81/17 50/82/17 103/83/17 104/84/17 24/84/17 9/85/17
f 18/86/18 10/87/18 55/87/18 56/88/18 80/89/18 82/90/18
f 23/91/19 12/92/19 61/93/19 60/77/19 99/80/19 100/91/19
f 65/94/5 67/95/5 14/96/5 13/40/5
f 14/96/5 70/97/5 69/41/5 13/40/5
f 71/12/5 73/98/5 16/99/5 15/13/5
f 16/99/5 76/100/5 75/101/5 15/13/5
f 77/102/5 79/103/5 18/104/5 17/10/5
f 18/104/5 82/105/5 81/11/5 17/10/5
f 83/42/5 85/106/5 20/107/5 19/43/5
f 20/107/5 88/108/5 87/109/5 19/43/5
f 97/110/5 23/110/5 100/110/5 93/111/5 22/111/5 96/111/5 89/112/5 21/112/5 92/112/5 101/113/5 24/113/5 104/113/5
f 47/46/20 84/45/20 68/114/20 26/115/20
f 27/5/21 66/4/21 74/65/21 36/64/21
f 37/116/22 72/117/22 80/89/22 56/88/22
f 73/118/23 72/117/23 37/116/23 38/119/23 4/119/23 16/120/23
f 59/8/5 61/121/5 12/122/5 11/9/5
f 79/123/24 78/124/24 57/125/24 58/126/24 10/126/24 18/127/24
f 49/128/5 51/129/5 9/130/5 8/38/5
f 57/125/25 78/124/25 86/55/25 46/54/25
f 50/82/26 62/131/26 98/132/26 103/83/26
f 9/130/5 54/133/5 53/39/5 8/38/5
f 3/31/5 34/134/5 33/135/5 2/32/5
f 30/70/27 52/60/27 102/59/27 91/71/27
f 6/136/28 22/137/28 93/137/28 94/79/28 42/78/28 44/138/28
f 6/51/5 44/139/5 43/7/5 5/6/5
f 12/122/5 64/140/5 63/141/5 11/9/5
f 97/142/29 98/132/29 62/131/29 64/143/29 12/144/29 23/142/29
f 25/145/30 26/115/30 68/114/30 70/146/30 14/147/30 1/145/30
f 29/29/31 30/148/31 31/30/31
f 32/149/32 33/135/32 34/134/32
f 39/49/33 40/150/33 41/50/33
f 42/151/34 43/7/34 44/139/34
f 49/128/35 50/152/35 51/129/35
f 52/153/36 53/39/36 54/133/36
f 59/8/37 60/154/37 61/121/37
f 62/155/38 63/141/38 64/140/38
f 65/94/39 66/156/39 67/95/39
f 68/157/40 69/41/40 70/97/40
f 71/12/41 72/158/41 73/98/41
f 74/159/42 75/101/42 76/100/42
f 77/102/43 78/160/43 79/103/43
f 80/161/44 81/11/44 82/105/44
f 83/42/45 84/162/45 85/106/45
f 86/163/46 87/109/46 88/108/46
f 27/5/47 36/64/47 35/63/47 28/1/47
f 37/116/48 56/88/48 55/87/48 38/119/48
f 57/125/49 46/54/49 45/53/49 58/126/49
f 47/46/50 26/115/50 25/145/50 48/47/50
f 65/94/51 75/101/51 74/159/51 66/156/51
f 83/164/52 69/165/52 68/114/52 84/45/52
f 39/49/53 33/135/53 32/149/53 40/150/53
f 89/33/54 96/75/54 95/73/54 90/34/54
f 29/29/55 53/39/55 52/153/55 30/148/55
f 101/58/56 92/67/56 91/71/56 102/59/56
f 71/12/57 81/11/57 80/161/57 72/158/57
f 59/67/52 43/166/52 42/78/52 60/77/52
f 93/137/58 100/91/58 99/80/58 94/79/58
f 77/102/53 87/109/53 86/163/53 78/160/53
f 49/128/59 63/141/59 62/155/59 50/152/59
f 97/142/60 104/84/60 103/83/60 98/132/60
f 35/167/61 4/167/61 38/167/61 55/168/61 10/168/61 58/168/61 45/169/61 7/169/61 48/169/61 25/170/61 1/170/61 28/170/61
f 105/171/62 109/172/62 111/173/62 107/174/62
f 110/174/27 106/173/27 108/175/27 112/176/27
f 108/176/61 107/175/61 111/177/61 112/178/61
f 106/178/14 105/177/14 107/179/14 108/180/14
f 110/181/5 109/176/5 105/178/5 106/182/5
f 112/175/63 111/183/63 109/184/63 110/177/63
f 113/175/63 114/183/63 116/184/63 115/177/63
f 115/181/27 116/176/27 120/178/27 119/182/27
f 119/178/14 120/177/14 118/179/14 117/180/14
f 117/176/16 118/175/16 114/177/16 113/178/16
f 115/174/61 119/173/61 117/175/61 113/176/61
f 120/171/5 116/172/5 114/173/5 118/174/5
f 121/171/5 125/172/5 127/173/5 123/174/5
f 126/174/61 122/173/61 124/175/61 128/176/61
f 124/176/62 123/175/62 127/177/62 128/178/62
f 122/178/14 121/177/14 123/179/14 124/180/14
f 126/181/27 125/176/27 121/178/27 122/182/27
f 128/175/63 127/183/63 125/184/63 126/177/63
